Coordinates
version=1
nRows=14
nColumns=46
inDegrees=yes

Units are S.I. units (second, meters, Newtons, ...)
Angles are in degrees.

endheader
time	pelvis_tilt	pelvis_list	pelvis_rotation	pelvis_tx	pelvis_ty	pelvis_tz	bb_angle	bb_tx	bb_ty	bb_tz	hip_flexion_r	hip_adduction_r	hip_rotation_r	knee_angle_r	knee_angle_r_beta	ankle_angle_r	subtalar_angle_r	mtp_angle_r	crank_angle_r	hip_flexion_l	hip_adduction_l	hip_rotation_l	knee_angle_l	knee_angle_l_beta	ankle_angle_l	subtalar_angle_l	mtp_angle_l	crank_angle_l	lumbar_extension	lumbar_bending	lumbar_rotation	arm_flex_r	arm_add_r	arm_rot_r	elbow_flex_r	pro_sup_r	wrist_flex_r	wrist_dev_r	arm_flex_l	arm_add_l	arm_rot_l	elbow_flex_l	pro_sup_l	wrist_flex_l	wrist_dev_l
      5.00500000	    -18.35035124	      8.66123686	      5.80325265	      0.16502515	      1.13547382	     -0.18131013	      0.00000000	      0.50000000	      0.00000000	      0.25000000	     31.75211498	    -11.53216764	     -1.89334897	     15.39281045	      0.26865522	    -11.80756231	     -3.41544599	      0.00000000	      0.00000000	     87.02238659	      5.38463661	      5.21935063	    105.98998753	      1.84987426	      7.61562544	     -2.44074949	      0.00000000	      0.00000000	    -62.52901791	    -11.08103374	    -22.95161491	     85.91766279	    -10.77134586	     42.67866684	     50.08422213	     34.05578794	      0.00000000	      0.00000000	     89.16389703	    -29.51227380	     33.07889065	     72.38488560	     47.34526420	      0.00000000	      0.00000000
      5.01000000	    -18.48470166	      8.65913444	      5.73814043	      0.16456005	      1.13626580	     -0.18216903	      0.00000000	      0.50000000	      0.00000000	      0.25000000	     31.95624446	    -11.52669065	     -1.65858216	     16.63756862	      0.29038035	    -11.61533300	     -4.16827056	      0.00000000	      0.00000000	     87.13957587	      5.20868447	      4.94902630	    105.15614768	      1.83532101	      9.36358289	     -2.65654451	      0.00000000	      0.00000000	    -62.58456739	    -11.19163331	    -22.85237090	     86.14030401	    -10.93293779	     42.56290349	     50.09441629	     34.13564973	      0.00000000	      0.00000000	     89.21527261	    -29.27416633	     33.03014532	     72.57867631	     47.30517052	      0.00000000	      0.00000000
      5.01500000	    -18.60369745	      8.60771868	      5.84037798	      0.16434342	      1.13753246	     -0.18296906	      0.00000000	      0.50000000	      0.00000000	      0.25000000	     32.16407302	    -11.53262611	     -1.39027329	     17.98336691	      0.31386896	    -11.58995167	     -4.88387724	      0.00000000	      0.00000000	     87.00068687	      5.18212212	      4.73183905	    104.01371828	      1.81538185	     11.08320916	     -3.01974841	      0.00000000	      0.00000000	    -62.67309405	    -11.11509293	    -22.70651103	     86.26733155	    -11.05420789	     42.47074831	     50.10502634	     34.18128656	      0.00000000	      0.00000000	     89.25444473	    -29.09326554	     32.98844524	     72.74433296	     47.28641558	      0.00000000	      0.00000000
      5.02000000	    -18.89590622	      8.89113867	      5.68491536	      0.16411407	      1.13847515	     -0.18364675	      0.00000000	      0.50000000	      0.00000000	      0.25000000	     33.05611154	    -11.73245174	     -0.71980566	     20.14162768	      0.35153772	    -11.23858754	     -6.22278852	      0.00000000	      0.00000000	     86.83399623	      4.81575447	      3.99989647	    102.65968623	      1.79174953	     13.02124036	     -2.92862169	      0.00000000	      0.00000000	    -62.72287634	    -11.58351318	    -22.76786064	     86.25530784	    -11.48668771	     42.20429894	     50.33045497	     34.44021118	      0.00000000	      0.00000000	     89.27672727	    -28.50977385	     32.83552010	     73.03551646	     47.12190412	      0.00000000	      0.00000000
      5.02500000	    -18.86749879	      8.90817478	      5.59298792	      0.16409676	      1.13993119	     -0.18480253	      0.00000000	      0.50000000	      0.00000000	      0.25000000	     33.57156364	    -11.69638770	     -0.08878182	     22.24898595	      0.38831806	    -11.16098033	     -7.55528013	      0.00000000	      0.00000000	     86.26345558	      4.61284091	      3.70807059	    101.18891442	      1.76607972	     14.80328485	     -2.93599399	      0.00000000	      0.00000000	    -63.01667249	    -11.57920876	    -22.57832214	     86.38799908	    -11.79040909	     41.99702907	     50.57148457	     34.62328293	      0.00000000	      0.00000000	     89.30591200	    -28.23081148	     32.73165870	     73.22868686	     47.01193401	      0.00000000	      0.00000000
      5.03000000	    -19.02545777	      8.89113580	      5.52475158	      0.16407985	      1.14113694	     -0.18660368	      0.00000000	      0.50000000	      0.00000000	      0.25000000	     34.53750041	    -11.68260524	      0.67474873	     24.74861314	      0.43194478	    -11.25648089	     -8.79654390	      0.00000000	      0.00000000	     85.66662239	      4.77237120	      3.38987888	     99.42017477	      1.73520939	     16.41796487	     -4.14701024	      0.00000000	      0.00000000	    -63.13321692	    -11.59996392	    -22.02154626	     86.18616864	    -12.82605227	     39.97159230	     49.52324880	     48.53762728	      0.00000000	      0.00000000	     89.31204090	    -27.32621043	     33.54239981	     75.06014787	     35.53461173	      0.00000000	      0.00000000
      5.03500000	    -18.67154630	      8.87499880	      5.44237344	      0.16373487	      1.14293708	     -0.18808383	      0.00000000	      0.50000000	      0.00000000	      0.25000000	     35.18588594	    -11.62541789	      1.40073218	     27.62595287	      0.48216384	    -11.39045263	    -10.06243394	      0.00000000	      0.00000000	     84.52058051	      4.85406409	      3.13877626	     97.49457733	      1.70160138	     17.73804152	     -5.00416014	      0.00000000	      0.00000000	    -63.68462362	    -11.39939063	    -21.79814183	     86.45033413	    -12.97755538	     39.80946470	     49.56933461	     48.53908258	      0.00000000	      0.00000000	     89.34923016	    -27.28302290	     33.58743982	     75.21819501	     35.57950086	      0.00000000	      0.00000000
      5.04000000	    -18.67882875	      8.93259714	      5.42687018	      0.16381507	      1.14439213	     -0.18978608	      0.00000000	      0.50000000	      0.00000000	      0.25000000	     36.35575798	    -11.63908878	      2.35947433	     30.72566944	      0.53626410	    -11.72831613	    -11.22432933	      0.00000000	      0.00000000	     83.61758464	      5.00249454	      2.78348929	     95.33286387	      1.66387236	     18.74950744	     -5.95993094	      0.00000000	      0.00000000	    -63.91939284	    -11.28625536	    -21.73883328	     86.43686700	    -13.19031785	     39.57830126	     49.82926545	     48.58302260	      0.00000000	      0.00000000	     89.35264789	    -27.19660715	     33.57883752	     75.47025443	     35.64030520	      0.00000000	      0.00000000
      5.04500000	    -18.36279584	      8.65706956	      5.46355342	      0.16384400	      1.14613193	     -0.19150490	      0.00000000	      0.50000000	      0.00000000	      0.25000000	     37.21061228	    -11.32472988	      3.09314891	     33.88256895	      0.59136239	    -12.20354239	    -12.37199266	      0.00000000	      0.00000000	     82.41639079	      5.02717710	      2.70700133	     93.15276488	      1.62582245	     19.65867052	     -6.59786154	      0.00000000	      0.00000000	    -64.35827513	    -10.78201675	    -21.34386204	     86.62872355	    -13.29421164	     39.35392491	     50.01082022	     48.59455895	      0.00000000	      0.00000000	     89.35988523	    -27.25529216	     33.57237835	     75.55435441	     35.66190288	      0.00000000	      0.00000000
      5.05000000	    -18.25881721	      8.74276865	      5.54121777	      0.16378908	      1.14751945	     -0.19352001	      0.00000000	      0.50000000	      0.00000000	      0.25000000	     38.52150546	    -11.35433670	      4.12387538	     37.32496234	      0.65144349	    -12.76658030	    -13.47040767	      0.00000000	      0.00000000	     81.29255156	      5.50287844	      2.65380262	     90.74640595	      1.58382357	     20.06108126	     -7.46929275	      0.00000000	      0.00000000	    -64.64619185	    -10.54906715	    -21.30239628	     86.47889613	    -13.58164632	     38.94656578	     50.47203914	     48.65200132	      0.00000000	      0.00000000	     89.36671012	    -27.21452297	     33.65263276	     75.76001352	     35.71515725	      0.00000000	      0.00000000
      5.05500000	    -17.73846767	      8.37361597	      5.55995342	      0.16401068	      1.14911682	     -0.19570864	      0.00000000	      0.50000000	      0.00000000	      0.25000000	     39.30070853	    -10.89672221	      4.94042854	     40.60228181	      0.70864350	    -13.55515317	    -14.06884931	      0.00000000	      0.00000000	     79.89655084	      5.65735797	      2.95085794	     88.59906108	      1.54634533	     20.49190230	     -7.81449473	      0.00000000	      0.00000000	    -65.15486271	     -9.86094749	    -20.74549486	     86.59149688	    -13.61520819	     38.75680430	     50.65799780	     48.66598907	      0.00000000	      0.00000000	     89.33195756	    -27.34368452	     33.66422871	     75.76643919	     35.72228321	      0.00000000	      0.00000000
      5.06000000	    -17.20269517	      8.15365670	      5.58403227	      0.16447591	      1.15044311	     -0.19759089	      0.00000000	      0.50000000	      0.00000000	      0.25000000	     40.20109307	    -10.59288617	      5.56226446	     44.06219183	      0.76903032	    -14.26709293	    -14.85321366	      0.00000000	      0.00000000	     78.48605914	      5.80680349	      3.11093727	     86.44626612	      1.50877197	     20.59064566	     -8.04046893	      0.00000000	      0.00000000	    -65.70635442	     -9.35757139	    -20.41028288	     86.69998650	    -13.78460880	     38.45881619	     50.90732424	     48.68008984	      0.00000000	      0.00000000	     89.33263681	    -27.43053268	     33.74872465	     75.78537392	     35.73891770	      0.00000000	      0.00000000
      5.06500000	    -16.78256532	      8.30920143	      5.75193332	      0.16487659	      1.15196124	     -0.19967217	      0.00000000	      0.50000000	      0.00000000	      0.25000000	     41.15575354	    -10.64001138	      6.51613084	     47.32992314	      0.82606299	    -15.20221538	    -15.59185150	      0.00000000	      0.00000000	     77.04220497	      6.18715793	      2.89008041	     83.99654557	      1.46601628	     20.19326449	     -8.52961394	      0.00000000	      0.00000000	    -66.30049032	     -9.05153622	    -20.37142365	     86.29333291	    -14.20743170	     37.69601330	     51.86349667	     48.79445731	      0.00000000	      0.00000000	     89.35362267	    -27.32142268	     34.06512531	     75.79672320	     35.78621541	      0.00000000	      0.00000000
      5.07000000	    -16.04215185	      8.18380504	      5.80640374	      0.16531976	      1.15324635	     -0.20167055	      0.00000000	      0.50000000	      0.00000000	      0.25000000	     41.74903100	    -10.35154429	      7.22761368	     50.53203632	      0.88195041	    -15.96105822	    -16.08096724	      0.00000000	      0.00000000	     75.42495468	      6.40426832	      3.01007906	     81.84868221	      1.42852899	     19.76482433	     -8.66567795	      0.00000000	      0.00000000	    -67.03385231	     -8.44807578	    -20.01378129	     86.24587205	    -14.36404707	     37.15312883	     52.49065120	     48.87068973	      0.00000000	      0.00000000	     89.34310325	    -27.43549771	     34.19512632	     75.72332271	     35.80592297	      0.00000000	      0.00000000
